<svg width="120" height="41" viewBox="0 0 120 41" fill="none" xmlns="http://www.w3.org/2000/svg">
<path fill-rule="evenodd" clip-rule="evenodd" d="M5.00503 18.5095L0.491696 26.3475C0.491696 26.3475 0.317529 26.6677 0.318362 27.0503C0.493362 27.3241 0.763362 27.6149 1.18503 27.8601C2.3267 28.5225 15.0167 35.8067 15.0167 35.8067L5.6517 19.5334L5.61003 19.4677C5.45753 19.2081 5.36503 18.8517 5.36503 18.459C5.36503 18.068 5.45753 17.7115 5.6117 17.4553L5.00503 18.5095Z" fill="#A9AEB6"/>
<mask id="mask0" mask-type="alpha" maskUnits="userSpaceOnUse" x="0" y="1" width="16" height="27">
<path fill-rule="evenodd" clip-rule="evenodd" d="M0 1.11279H15.0163V27.0497H0V1.11279Z" fill="white"/>
</mask>
<g mask="url(#mask0)">
<path fill-rule="evenodd" clip-rule="evenodd" d="M5.03338 18.4593L15.0167 1.11243C15.0167 1.11243 2.32671 8.39922 1.18588 9.06158C0.764215 9.30597 0.492548 9.60091 0.317548 9.87226C0.298382 9.90175 0.280882 9.93293 0.261715 9.96495C0.019215 10.3855 4.83167e-05 10.7689 4.83167e-05 10.8338C0.00254832 12.1138 0.00588165 25.6568 4.83167e-05 26.0866C-0.00161835 26.2635 0.0400483 26.4363 0.091715 26.5863C0.094215 26.5973 0.168382 26.7801 0.175048 26.7928C0.249215 26.9495 0.317548 27.0498 0.317548 27.0498V27.0481C0.311715 26.6959 0.492548 26.347 0.492548 26.347L5.03338 18.4593Z" fill="#1D2675"/>
</g>
<mask id="mask1" mask-type="alpha" maskUnits="userSpaceOnUse" x="15" y="1" width="15" height="19">
<path fill-rule="evenodd" clip-rule="evenodd" d="M15.0205 1.11279H29.718V19.4641H15.0205V1.11279Z" fill="white"/>
</mask>
<g mask="url(#mask1)">
<path fill-rule="evenodd" clip-rule="evenodd" d="M25.0313 18.4099L29.5438 10.5711C29.5438 10.5711 29.7197 10.2542 29.718 9.86745C29.5438 9.59526 29.2722 9.30284 28.8522 9.06014C27.7105 8.39694 15.0205 1.11267 15.0205 1.11267L24.3855 17.386L24.4255 17.4517C24.5772 17.7113 24.6722 18.066 24.6722 18.4571C24.6722 18.8514 24.5772 19.2062 24.4255 19.4641L25.0313 18.4099Z" fill="#A9AEB6"/>
</g>
<path fill-rule="evenodd" clip-rule="evenodd" d="M25.003 18.4573L15.0205 35.8033C15.0205 35.8033 27.7105 28.5224 28.8513 27.8576C29.2713 27.6132 29.543 27.3199 29.7197 27.0469C29.7388 27.0149 29.7555 26.9862 29.7763 26.9559C30.0155 26.5337 30.0355 26.1519 30.0355 26.0862C30.033 24.8053 30.0313 11.2632 30.0355 10.8317C30.0363 10.6564 29.9972 10.4854 29.9455 10.3328C29.9413 10.3227 29.8672 10.1416 29.8613 10.1264C29.7855 9.97048 29.7197 9.86768 29.7197 9.86768V9.8702C29.7255 10.2233 29.543 10.5713 29.543 10.5713L25.003 18.4573Z" fill="#1D2675"/>
<path fill-rule="evenodd" clip-rule="evenodd" d="M57.8139 40.3077V27.497L53.6622 35.8321H50.7939L46.6114 27.497V40.3077H42.3672V18.3276H46.5497L52.228 30.213L57.8747 18.3276H62.058V40.3077H57.8139Z" fill="#1D2675"/>
<path fill-rule="evenodd" clip-rule="evenodd" d="M73.5721 40.4938C71.1888 40.4938 69.2363 39.6309 67.708 38.0871C65.5113 35.8632 65.5705 33.116 65.5705 29.318C65.5705 25.5199 65.5113 22.7761 67.708 20.5522C69.2363 19.0084 71.1888 18.1438 73.5721 18.1438C77.6305 18.1438 80.803 20.4907 81.5671 25.0885H77.2638C76.838 23.3314 75.7371 21.973 73.6005 21.973C72.4421 21.973 71.4946 22.4045 70.8821 23.1149C70.0596 24.0385 69.8146 25.0885 69.8146 29.318C69.8146 33.5491 70.0596 34.5983 70.8821 35.5236C71.4946 36.2331 72.4421 36.6663 73.6005 36.6663C75.7371 36.6663 76.838 35.3087 77.2638 33.5491H81.5671C80.803 38.1469 77.6013 40.4938 73.5721 40.4938Z" fill="#1D2675"/>
<path fill-rule="evenodd" clip-rule="evenodd" d="M92.2217 24.8133L89.4742 32.8079H94.8784L92.2217 24.8133ZM97.2901 40.3079L96.0067 36.418H88.2834L86.9709 40.3079H82.5459L90.4501 18.3279H93.7767L101.716 40.3079H97.2901Z" fill="#1D2675"/>
<path fill-rule="evenodd" clip-rule="evenodd" d="M112.612 22.1584H108.644V28.177H112.612C114.537 28.177 115.755 26.9728 115.755 25.1812C115.755 23.393 114.537 22.1584 112.612 22.1584ZM112.827 32.0348H108.644V40.3076H104.4V18.3284H112.827C117.314 18.3284 120 21.448 120 25.1812C120 28.9185 117.314 32.0348 112.827 32.0348Z" fill="#1D2675"/>
</svg>
