<?xml version="1.0" encoding="UTF-8"?>
<svg xmlns="http://www.w3.org/2000/svg" id="Layer_1" data-name="Layer 1" viewBox="0 0 24 24">
  <path d="m19.427,6.513c-.486-3.67-3.627-6.513-7.427-6.513-3.23,0-6.015,2.039-7.057,5.028-2.772.28-4.943,2.628-4.943,5.472,0,2.043,1.118,3.883,2.93,4.844l.156.156-1.5,1.5,1.5,1.5-1.5,1.5,3.915,3.914,3.499-3.5v-5.673c1.262-1.041,2-2.589,2-4.241,0-2.51-1.693-4.629-3.996-5.286.878-1.932,2.8-3.214,4.996-3.214,2.745,0,5.021,2.025,5.429,4.657l-4.429,4.429v12.914h11v-12.914l-4.573-4.573Zm-10.427,3.987c0,1.169-.582,2.256-1.557,2.909l-.443.298v5.879l-1.499,1.5-1.087-1.086,1.5-1.5-1.5-1.5,1.5-1.5-1.799-1.799-.148-.073c-1.213-.597-1.967-1.796-1.967-3.128,0-1.93,1.57-3.5,3.5-3.5s3.5,1.57,3.5,3.5Zm13,11.5h-7v-10.086l3.5-3.5,3.5,3.5v10.086ZM5.5,8c.828,0,1.5.672,1.5,1.5s-.672,1.5-1.5,1.5-1.5-.672-1.5-1.5.672-1.5,1.5-1.5Z"/>
</svg>
